<?xml version="1.0" encoding="UTF-8"?>
<svg id="Warstwa_2" data-name="Warstwa 2" xmlns="http://www.w3.org/2000/svg" viewBox="0 0 104.23 130.28">
  <defs>
    <style>
      .cls-1 {
        fill="#000000"
        stroke="#000000"
        stroke-linejoin: round;
        stroke-width: 3px;
        opacity="#000000"
      }
    </style>
  </defs>
  <g id="Layer_2" data-name="Layer 2">
    <g>
      <path class="cls-1" d="m45.5,1.16c16.52,13.49,32.58,27.55,48.14,42.14"/>
      <path class="cls-1" d="m1.54,50.97c14.66-16.6,11.98-14.18,26.64-30.78"/>
      <path class="cls-1" d="m1.54,89.97c14.66-16.6,29.31-33.2,43.97-49.81,16.52,13.49,32.58,27.55,48.14,42.14"/>
      <path class="cls-1" d="m1.94,90.25c17.03,12.84,34.06,25.69,51.09,38.53,14.19-15.17,27.84-30.79,40.91-46.81"/>
      <path class="cls-1" d="m2.07,50.73l-.57,39.32"/>
      <path class="cls-1" d="m45.5,2.08c.66,12.8.68,25.64.04,38.44"/>
      <path class="cls-1" d="m93.55,42.81c.03,13.19.06,26.38.09,39.57"/>
      <path class="cls-1" d="m44.98,40.51c-2.18,8.81-5.23,17.4-9.1,25.6,3.45,2.92,6.91,5.83,10.36,8.75,7.83,6.61,15.67,13.23,23.5,19.84,7.31-4.85,15.16-8.89,23.36-12.03"/>
      <path class="cls-1" d="m45.76,1.53c-8.29,1.59-16.58,3.19-24.87,4.78,8.42,10.49,11.06,24.93,8.71,38.18,4.93-1.94,10.1-3.28,15.36-3.97"/>
      <path class="cls-1" d="m92.86,82.93c1.94,5.57,3.89,11.13,5.83,16.7,2.95-15.33,3.5-31.01,4.04-46.62-2.79-3.12-5.58-6.25-8.37-9.37"/>
    </g>
  </g>
</svg>