<?xml version="1.0" encoding="UTF-8"?>
<svg id="Warstwa_2" data-name="Warstwa 2" xmlns="http://www.w3.org/2000/svg" viewBox="0 0 162.68 165.87">
  <defs>
    <style>
      .cls-1 {
        stroke-linejoin: round;
      }

      .cls-1, .cls-2 {
        fill="#000000"
        stroke="#000000"
        stroke-linejoin: round;
        stroke-width: 3px;
         opacity="#000000"
      }

      .cls-2 {
        stroke-miterlimit: 10;
      }
    </style>
  </defs>
  <g id="Layer_2" data-name="Layer 2">
    <g>
      <path class="cls-2" d="m29.64,56c6.8,27.18,18.17,53.22,33.55,77.41,24.38-11.06,48.28-23.2,71.59-36.36"/>
      <path class="cls-2" d="m104.05,28.26c6.47,24.27,16.81,47.5,30.49,68.56"/>
      <path class="cls-1" d="m103.88,28.14c-24.2,10.34-48.76,19.84-73.34,28.62-6.82-4.72-13.19-10.08-19.09-16.37C42.01,26.25,73.2,13.45,105.31,1.5c-.46,9.06-1.26,26.76-1.26,26.76,0,0,10.49-10.47,14.73-16.79,5.42,13.6,10.85,27.2,16.91,40.52,7.82,17.2,16.66,33.92,25.49,50.63-8.58-3.12-17.61-4.99-26.73-5.56"/>
      <path class="cls-2" d="m30.49,57.45c-9.38.51-18.81,0-28.08-1.51,10.58,25.54,21.22,51.19,35.6,74.8,4.72,7.75,10.03,15.9,9.81,24.97,6.27-6.16,12.46-14.5,15.3-22.82"/>
      <path class="cls-2" d="m134.2,96.96c6.17,6.93,12.88,13.38,20.06,19.26-33.27,10.43-61.99,31.53-93.15,47.19.25-10.27,1.82-19.72,2.07-29.99"/>
      <path class="cls-1" d="m96.86,46.1c4,13.94,9.44,27.47,16.21,40.29-15.25,8.39-30.28,17.05-45.31,25.7-6.78-15.38-13.46-31.04-20.24-46.44,17.07-4.49,33.66-10.84,49.14-17.71,1.34-6.35,3.33-12.55,5.93-18.5"/>
      <path class="cls-1" d="m48.17,66c-5.5-3.56-11.46-6.4-17.68-8.43"/>
      <path class="cls-1" d="m67.72,111.79c-.91,7.11-2.39,14.14-4.43,21.02"/>
      <path class="cls-1" d="m112.1,86.04l21.56,11.17"/>
    </g>
  </g>
</svg>