<?xml version="1.0" encoding="UTF-8"?>
<svg id="Warstwa_2" data-name="Warstwa 2" xmlns="http://www.w3.org/2000/svg" viewBox="0 0 126.84 79.82">
  <defs>
    <style>
      .cls-1 {
        fill="#000000"
        stroke="#000000"
        stroke-linejoin: round;
        stroke-width: 3px;
         opacity="#000000"
      }
    </style>
  </defs>
  <g id="Layer_2" data-name="Layer 2">
    <g>
      <path class="cls-1" d="m49.22,4.94L12.89,38.46s43.26,8.65,63.74,12.88c11.62-15.74,23.99-30.93,37.05-45.5"/>
      <line class="cls-1" x1="48.99" y1="5.19" x2="113.52" y2="5.19"/>
      <path class="cls-1" d="m13.8,38.59c-4.1,3.91-8.2,7.81-12.3,11.72,26.48.64,52.57,6.16,78.49,11.65-1.01-3.56-2.02-7.11-3.03-10.67"/>
      <path class="cls-1" d="m113.26,5.61l12.09-4.11c-13.49,19.61-26.99,39.21-40.48,58.82-2.65-2.98-5.29-5.95-7.94-8.93"/>
      <path class="cls-1" d="m16.13,51.44c1.12,6.48,1.16,13.15.12,19.64,23.5-.27,47.02,2.16,69.97,7.23-2.45-8.74-6.4-18.24-8.86-26.98"/>
      <path class="cls-1" d="m86.1,78.15c11.3-15.85,22.88-31.5,34.72-46.96-2.13-4.36-4.27-8.72-6.4-13.08"/>
      <line class="cls-1" x1="48.99" y1="5.19" x2="54.26" y2="34.27"/>
      <path class="cls-1" d="m43.95,44.17c3.31-3.27,6.61-6.53,10.32-9.9,11.23-.41,22.49.24,33.6,1.96"/>
    </g>
  </g>
</svg>