<?xml version="1.0" encoding="UTF-8"?>
<svg id="Warstwa_2" data-name="Warstwa 2" xmlns="http://www.w3.org/2000/svg" viewBox="0 0 195.7 160.17">
  <defs>
    <style>
      .cls-1 {
         fill="#000000"
        stroke="#000000"
        stroke-linejoin: round;
        stroke-width: 4px;
         opacity="#000000"
      }
    </style>
  </defs>
  <g id="Layer_2" data-name="Layer 2">
    <g>
      <path class="cls-1" d="m179.4,34.08c-28.75,14.54-57.5,29.07-86.25,43.61-22.87-13.55-46.94-24.36-71.25-33.35,7.54-6.94,17.74-10,27.44-13.28,22.87-7.71,44.98-17.7,64.64-29.56,15.16,6.93,30.31,13.86,45.47,20.79,6.97,3.18,14.02,6.42,19.96,11.25"/>
      <path class="cls-1" d="m22.67,44.47c-7.6,6.23-14.69,13.09-21.17,20.49,27.04,7.5,54.25,15.07,79.49,27.31,2.4-5.91,6.66-11.05,11.88-13.76,6.53,5.43,13.07,10.86,19.6,16.3,14.93-11.12,29.85-22.25,44.78-33.37,11.78-8.78,23.67-17.62,36.95-23.91-5.19-1.02-10.39-2.05-15.58-3.07"/>
      <path class="cls-1" d="m92.92,78.51c5.04,26.45,9.37,53.03,12.84,80.16,20-14.24,40.01-28.48,60.16-42.28l12.44-70.19"/>
      <path class="cls-1" d="m112.62,3.71c2.82,19.69,5.64,39.37,8.46,59.06"/>
      <path class="cls-1" d="m31.47,74.36c5.8,19.65,8.2,40.13,10.58,60.48,20.56,10.05,42.07,16.38,63.71,23.83"/>
      <path class="cls-1" d="m179.4,34.08c-28.75,14.54-57.5,29.07-86.25,43.61-22.87-13.55-46.94-24.36-71.25-33.35,7.54-6.94,17.74-10,27.44-13.28,22.87-7.71,44.98-17.7,64.64-29.56,15.16,6.93,30.31,13.86,45.47,20.79,6.97,3.18,14.02,6.42,19.96,11.25"/>
      <path class="cls-1" d="m22.67,44.47c-7.6,6.23-14.69,13.09-21.17,20.49,27.04,7.5,54.25,15.07,79.49,27.31,2.4-5.91,6.66-11.05,11.88-13.76,6.53,5.43,13.07,10.86,19.6,16.3,14.93-11.12,29.85-22.25,44.78-33.37,11.78-8.78,23.67-17.62,36.95-23.91-5.19-1.02-10.39-2.05-15.58-3.07"/>
      <path class="cls-1" d="m92.92,78.51c5.04,26.45,9.37,53.03,12.84,80.16,20-14.24,40.01-28.48,60.16-42.28l12.44-70.19"/>
      <path class="cls-1" d="m112.62,3.71c2.82,19.69,5.64,39.37,8.46,59.06"/>
      <path class="cls-1" d="m31.47,74.36c5.8,19.65,8.2,40.13,10.58,60.48,20.56,10.05,42.07,16.38,63.71,23.83"/>
    </g>
  </g>
</svg>