<?xml version="1.0" encoding="UTF-8"?>
<svg id="Warstwa_2" data-name="Warstwa 2" xmlns="http://www.w3.org/2000/svg" viewBox="0 0 120.95 126.28">
  <defs>
    <style>
      .cls-1 {
        fill="#000000"
        stroke="#000000"
        stroke-linejoin: round;
        stroke-width: 3px;
         opacity="#000000"
      }
    </style>
  </defs>
  <g id="Layer_2" data-name="Layer 2">
    <g>
      <polyline class="cls-1" points="1.5 86 1.5 1.5 80.5 1.5"/>
      <line class="cls-1" x1="80.5" y1="86" x2="25.94" y2="86"/>
      <line class="cls-1" x1="81.25" y1="26.13" x2="80.5" y2="86"/>
      <rect class="cls-1" x="25.94" y="25.64" width="79" height="84.5"/>
      <path class="cls-1" d="m1.32,85.68c8.24,8.01,8.01,8.74,16.25,16.74"/>
      <line class="cls-1" x1="80.27" y1="1.69" x2="90.63" y2="11.59"/>
      <path class="cls-1" d="m2.43,1.94c7.77,8.34,15.82,16.41,24.16,24.19"/>
      <path class="cls-1" d="m104.8,110.18c2.97,3.68,8.08,11.66,8.08,11.66,0,0-31.19,2.26-46.41,2.26-17.72,0-29.27,1.21-44.47.4,1.39-4.77,2.77-9.53,4.16-14.3.08.02.08.11.08.11l.04-.46c-2.64,4.66-7.93,13.97-7.93,13.97l-3.83-105.31,12.03,7.45-4.15-13.33,88.64-1.35-6.09,14.36,14.51-12.21-2.74,105.35s-7.33-6.57-11.78-8.61"/>
      <path class="cls-1" d="m80.24,85.51c7.63,8.53,15.69,16.68,24.14,24.4"/>
    </g>
  </g>
</svg>