<?xml version="1.0" encoding="UTF-8"?>
<svg id="Warstwa_2" data-name="Warstwa 2" xmlns="http://www.w3.org/2000/svg" viewBox="0 0 57.73 39.71">
  <defs>
    <style>
      .cls-1 {
        stroke-width: 2px;
        
        fill="#000000"
        stroke="#000000"
      }

      .cls-1, .cls-2, .cls-3, .cls-4 {
        stroke-width: 2px;
        
        fill="#000000"
        stroke="#000000"
      }

      .cls-1, .cls-2, .cls-4 {
        stroke-width: 2px;
        
        fill="#000000"
        stroke="#000000"
      }

      .cls-2, .cls-3 {
        stroke-width: 2px;
        stroke-linecap: round;
        fill="#000000"
        stroke="#000000"
      }

      .cls-2, .cls-3, .cls-4 {
        stroke-width: 2px;
        stroke-linejoin: round;
        fill="#000000"
        stroke="#000000"
      }

      .cls-3 {
        
        stroke-dasharray: 0 0 0 0 0 0 0 0 0 0 0 0;
        stroke-width: 2px;
        fill="#000000"
        stroke="#000000"
      }
    </style>
  </defs>
  <g id="Layer_2" data-name="Layer 2">
    <g>
      <line class="cls-2" x1="31.62" y1="39.21" x2="4.66" y2="35.54"/>
      <line class="cls-2" x1="50.47" y1="34.21" x2="31.62" y2="39.21"/>
      <polygon class="cls-4" points="31.62 6 4.66 4.14 24.37 .5 50.23 2.33 31.62 6"/>
      <line class="cls-2" x1="25.81" y1="17.81" x2=".5" y2="14.82"/>
      <line class="cls-2" x1="57.23" y1="13.64" x2="37.77" y2="17.74"/>
      <line class="cls-1" x1="4.66" y1="15.32" x2="4.66" y2="35.54"/>
      <line class="cls-1" x1="50.47" y1="15.21" x2="50.47" y2="34.21"/>
      <line class="cls-1" x1="31.62" y1="6" x2="31.62" y2="39.47"/>
      <path class="cls-2" d="m31.33,6.36c-1.8,3.82-3.61,7.64-5.52,11.41v.03"/>
      <line class="cls-2" x1="4.66" y1="4.14" x2=".5" y2="14.57"/>
      <path class="cls-2" d="m31.76,6c1.98,3.9,3.95,7.8,5.93,11.7"/>
      <line class="cls-2" x1="50.73" y1="2.39" x2="57.23" y2="13.64"/>
      <path class="cls-3" d="m10.24,32.11l-.05-8.71,5.05,3.72,4.31-5.1,2.78,6.02,5.65-2.97-2.14,9.14s-2.71-2.02-7.38-2.49c-6.2-.61-8.22.38-8.22.38Z"/>
    </g>
  </g>
</svg>