<?xml version="1.0" encoding="UTF-8"?>
<svg id="Warstwa_2" data-name="Warstwa 2" xmlns="http://www.w3.org/2000/svg" viewBox="0 0 148.29 210.71">
  <defs>
    <style>
      .cls-1 {
        fill="#000000"
        stroke="#000000"
        stroke-miterlimit: 10;
        stroke-width: 10px;
      }
    </style>
  </defs>
  <g id="Layer_1" data-name="Layer 1">
    <g>
      <path class="cls-1" d="m134.47,179.19l-67.95,27.28c-8.84,3.55-18.88-.74-22.43-9.58L4.25,97.64c-3.55-8.84.74-18.88,9.58-22.43l32.54-13.06,19.46,48.48c3.55,8.84,13.6,13.13,22.44,9.58l35.4-14.22,20.38,50.77c3.55,8.84-.74,18.88-9.58,22.43Z"/>
      <path class="cls-1" d="m131.38,102.9l-7.71,3.09-35.4,14.22c-8.84,3.55-18.89-.74-22.44-9.58l-19.46-48.48-7.29-18.16c-3.55-8.84.74-18.89,9.58-22.44L91.78,4.25c8.84-3.55,18.88.74,22.43,9.58l26.76,66.64c3.55,8.84-.74,18.89-9.59,22.43Z"/>
    </g>
  </g>
</svg>