<?xml version="1.0" encoding="UTF-8"?>
<svg id="Layer_2" data-name="Layer 2" xmlns="http://www.w3.org/2000/svg" viewBox="0 0 429.35 244.99">
  <defs>
    <style>
      .cls-1 {
        stroke-width: 16px;
      }

      .cls-1, .cls-2, .cls-3 {
        stroke: #1d1d1b;
        stroke-miterlimit: 10;
      }

      .cls-1, .cls-3 {
        fill: none;
      }

      .cls-2 {
        fill: #1d1d1b;
      }

      .cls-3 {
        stroke-width: 13px;
      }
    </style>
  </defs>
  <path class="cls-3" d="m377.75,47.68v116.64c0,18.11-11.69,33.49-27.93,39,.29-1.96.44-3.97.44-6.01v-116.64c0-22.74-18.44-41.18-41.18-41.18H91.43c-4.63,0-9.09.77-13.24,2.18,2.91-19.89,20.03-35.17,40.73-35.17h217.65c22.74,0,41.18,18.44,41.18,41.18Z"/>
  <path class="cls-3" d="m350.26,80.67v116.64c0,2.04-.15,4.05-.44,6.01-2.91,19.9-20.04,35.17-40.74,35.17H91.43c-22.74,0-41.17-18.43-41.17-41.18v-116.64c0-18.11,11.68-33.49,27.93-39,4.15-1.41,8.61-2.18,13.24-2.18h217.65c22.74,0,41.18,18.44,41.18,41.18Z"/>
  <g>
    <path class="cls-1" d="m275.67,203.75l39.39-7.12c.05,0,.08-.07.05-.11l-17.6-26.46s-.09-.04-.12,0l-21.79,33.58c-.03.05.01.12.07.11Z"/>
    <path class="cls-1" d="m378.58,104.85c6.65-6.08,13.82-12.41,22.69-13.98,8.87-1.57,19.61,3.97,20.06,12.97.42,8.29-7.37,14.38-14.34,18.88-41.19,26.55-83.49,51.38-126.75,74.4"/>
  </g>
  <g>
    <path class="cls-1" d="m147.55,78.68l-38.9,9.45c-.05.01-.07.07-.04.11l19.14,25.37s.1.04.12,0l19.76-34.82c.03-.06-.02-.12-.08-.11Z"/>
    <path class="cls-1" d="m50.69,183.52c-6.28,6.46-13.06,13.21-21.82,15.3-8.76,2.09-19.81-2.8-20.8-11.76-.91-8.25,6.5-14.79,13.2-19.69,39.54-28.94,80.29-56.24,122.11-81.79"/>
  </g>
  <path class="cls-2" d="m116.01,150.14c6.62-3.37,14.89-4.74,18.66-.65,5.21,5.68,11.12,14.38,16.26,21.15-.17-5.92-1.43-10.88-4.37-16.66-2.09-4.1-5.85-6.93-9.9-8.25,1.09-5.52,5.26-11.01,12.46-14.68,7.46-3.8,15.25-.92,18.84,6.12,6.02,11.81-3.56,34.41-1.26,38.94l1.71,3.35c3.07,6.03,5.66,8.62,6.51,10.29.38.75-.03,1.6-.87,2.23-1.92,1.4-4.93,3.57-10.13,6.21-5.36,2.73-11.31,5.13-12.82,5.48-.92.26-1.56-.16-2.07-1.16-.68-1.34-1.55-5.12-4.33-10.56l-1.88-3.68c-3.03-5.95-24.57-18.81-28.32-21.01-2.41-1.41-5.78-3.28-8.35-3.97-1.79-3.52,1.82-9.05,9.86-13.15Z"/>
  <path class="cls-2" d="m221.11,170.57c-19.93,10.16-36.09,2.04-45.48-16.39-8.53-16.75-1.32-35.51,14.84-43.75,15.58-7.94,33.71-6.31,43.95,13.79,7.64,14.99,6.96,36.01-13.31,46.34Zm-9.45-32c-5.59-10.97-12.1-16.09-15.37-14.43-3.18,1.62-2.3,7.08,2.69,16.88,6.53,12.81,13.46,17.3,16.56,15.72,2.6-1.32,1.5-7.62-3.88-18.17Z"/>
  <path class="cls-2" d="m255.73,148.15c-.68-1.34-1.34-5.12-3.69-9.72l-14.55-28.56c-2.82-5.53-6.85-10.12-9.55-11.7-.85-1.67,1.22-5.05,4.44-7.22,4.52-2.93,9.29-5.79,14.23-8.3s10.05-4.7,15.42-6.8c2.68-1.37,6.94.79,9.16,5.14,3.93,7.71,3.55,13.17,2.71,13.6-.67.34-1.51.35-2.27.1-1.86-.74-7.2-1.29-11.73.17l5.72,11.22c3.43-1.75,5.14-4.62,7.06-5.6,1.34-.68,3.87.56,4.77,2.32,1.45,2.85,2.8,8.81.96,9.75-.33.17-.67.13-.97-.04-2.78-.69-4.33,0-7.68,1.7l6.4,12.56c1.92,3.77,4.72,7.2,5.28,8.28.51,1,.52,1.85-.02,2.23-2.34,1.83-6.69,4.46-12.55,7.45-5.36,2.73-9.13,4.02-11.06,4.58-.84.22-1.56-.16-2.07-1.16Z"/>
  <circle class="cls-2" cx="186.4" cy="179.23" r="6.94"/>
  <circle class="cls-2" cx="247.44" cy="152.02" r="6.94"/>
  <circle class="cls-2" cx="293.12" cy="132.05" r="6.94"/>
</svg>